<?xml version="1.0" encoding="UTF-8" standalone="no"?>
<!DOCTYPE svg PUBLIC "-//W3C//DTD SVG 1.1//EN"
 "http://www.w3.org/Graphics/SVG/1.1/DTD/svg11.dtd">
<!-- Generated by graphviz version 2.44.1 (20200629.0846)
 -->
<!-- Title: dependencies Pages: 1 -->
<svg width="1363pt" height="284pt"
 viewBox="0.00 0.00 1363.00 284.00" xmlns="http://www.w3.org/2000/svg" xmlns:xlink="http://www.w3.org/1999/xlink">
<g id="graph0" class="graph" transform="scale(1 1) rotate(0) translate(4 280)">
<title>dependencies</title>
<polygon fill="white" stroke="transparent" points="-4,4 -4,-280 1359,-280 1359,4 -4,4"/>
<text text-anchor="start" x="656.51" y="-42.4" font-family="sans-serif" font-weight="bold" font-size="14.00">Legend</text>
<polygon fill="#ffffb3" stroke="transparent" points="443.5,-10 443.5,-30 463.5,-30 463.5,-10 443.5,-10"/>
<text text-anchor="start" x="467.13" y="-15.4" font-family="sans-serif" font-size="14.00"> &#160;Declarations</text>
<polygon fill="#8dd3c7" stroke="transparent" points="556.5,-10 556.5,-30 576.5,-30 576.5,-10 556.5,-10"/>
<text text-anchor="start" x="580.23" y="-15.4" font-family="sans-serif" font-size="14.00"> &#160;Module</text>
<polygon fill="#80b1d3" stroke="transparent" points="642.5,-10 642.5,-30 662.5,-30 662.5,-10 642.5,-10"/>
<text text-anchor="start" x="666.28" y="-15.4" font-family="sans-serif" font-size="14.00"> &#160;Bootstrap</text>
<polygon fill="#fdb462" stroke="transparent" points="739.5,-10 739.5,-30 759.5,-30 759.5,-10 739.5,-10"/>
<text text-anchor="start" x="763.17" y="-15.4" font-family="sans-serif" font-size="14.00"> &#160;Providers</text>
<polygon fill="#fb8072" stroke="transparent" points="835.5,-10 835.5,-30 855.5,-30 855.5,-10 835.5,-10"/>
<text text-anchor="start" x="859.23" y="-15.4" font-family="sans-serif" font-size="14.00"> &#160;Exports</text>
<g id="clust1" class="cluster">
<title>cluster_AppModule</title>
<polygon fill="none" stroke="black" stroke-dasharray="1,5" points="8,-70 8,-268 1347,-268 1347,-70 8,-70"/>
</g>
<g id="clust2" class="cluster">
<title>cluster_AppModule_declarations</title>
<polygon fill="none" stroke="black" points="479,-78 479,-130 1339,-130 1339,-78 479,-78"/>
</g>
<g id="clust9" class="cluster">
<title>cluster_AppModule_imports</title>
<polygon fill="none" stroke="black" points="202,-78 202,-130 471,-130 471,-78 202,-78"/>
</g>
<g id="clust11" class="cluster">
<title>cluster_AppModule_bootstrap</title>
<polygon fill="none" stroke="black" points="652,-208 652,-260 776,-260 776,-208 652,-208"/>
</g>
<g id="clust12" class="cluster">
<title>cluster_AppModule_providers</title>
<polygon fill="none" stroke="black" points="16,-78 16,-130 194,-130 194,-78 16,-78"/>
</g>
<!-- AppComponent -->
<g id="node1" class="node">
<title>AppComponent</title>
<polygon fill="#ffffb3" stroke="black" points="1330.94,-122 1225.06,-122 1225.06,-86 1330.94,-86 1330.94,-122"/>
<text text-anchor="middle" x="1278" y="-99.8" font-family="Times,serif" font-size="14.00">AppComponent</text>
</g>
<!-- AppModule -->
<g id="node7" class="node">
<title>AppModule</title>
<polygon fill="#8dd3c7" stroke="black" points="755.66,-187 752.66,-191 731.66,-191 728.66,-187 672.34,-187 672.34,-151 755.66,-151 755.66,-187"/>
<text text-anchor="middle" x="714" y="-164.8" font-family="Times,serif" font-size="14.00">AppModule</text>
</g>
<!-- AppComponent&#45;&gt;AppModule -->
<g id="edge1" class="edge">
<title>AppComponent&#45;&gt;AppModule</title>
<path fill="none" stroke="black" d="M1278,-122.01C1278,-144.49 1278,-180 1278,-180 1278,-180 765.93,-180 765.93,-180"/>
<polygon fill="black" stroke="black" points="765.93,-176.5 755.93,-180 765.93,-183.5 765.93,-176.5"/>
</g>
<!-- EditUserComponent -->
<g id="node2" class="node">
<title>EditUserComponent</title>
<polygon fill="#ffffb3" stroke="black" points="1207.59,-122 1076.41,-122 1076.41,-86 1207.59,-86 1207.59,-122"/>
<text text-anchor="middle" x="1142" y="-99.8" font-family="Times,serif" font-size="14.00">EditUserComponent</text>
</g>
<!-- EditUserComponent&#45;&gt;AppModule -->
<g id="edge2" class="edge">
<title>EditUserComponent&#45;&gt;AppModule</title>
<path fill="none" stroke="black" d="M1142,-122.13C1142,-142.57 1142,-173 1142,-173 1142,-173 765.82,-173 765.82,-173"/>
<polygon fill="black" stroke="black" points="765.82,-169.5 755.82,-173 765.82,-176.5 765.82,-169.5"/>
</g>
<!-- LoginComponent -->
<g id="node3" class="node">
<title>LoginComponent</title>
<polygon fill="#ffffb3" stroke="black" points="1058.28,-122 943.72,-122 943.72,-86 1058.28,-86 1058.28,-122"/>
<text text-anchor="middle" x="1001" y="-99.8" font-family="Times,serif" font-size="14.00">LoginComponent</text>
</g>
<!-- LoginComponent&#45;&gt;AppModule -->
<g id="edge3" class="edge">
<title>LoginComponent&#45;&gt;AppModule</title>
<path fill="none" stroke="black" d="M1001,-122.27C1001,-140.56 1001,-166 1001,-166 1001,-166 765.73,-166 765.73,-166"/>
<polygon fill="black" stroke="black" points="765.73,-162.5 755.73,-166 765.73,-169.5 765.73,-162.5"/>
</g>
<!-- NavbarComponent -->
<g id="node4" class="node">
<title>NavbarComponent</title>
<polygon fill="#ffffb3" stroke="black" points="925.03,-122 802.97,-122 802.97,-86 925.03,-86 925.03,-122"/>
<text text-anchor="middle" x="864" y="-99.8" font-family="Times,serif" font-size="14.00">NavbarComponent</text>
</g>
<!-- NavbarComponent&#45;&gt;AppModule -->
<g id="edge4" class="edge">
<title>NavbarComponent&#45;&gt;AppModule</title>
<path fill="none" stroke="black" d="M864,-122.01C864,-138.05 864,-159 864,-159 864,-159 765.78,-159 765.78,-159"/>
<polygon fill="black" stroke="black" points="765.78,-155.5 755.78,-159 765.78,-162.5 765.78,-155.5"/>
</g>
<!-- UserDetailComponent -->
<g id="node5" class="node">
<title>UserDetailComponent</title>
<polygon fill="#ffffb3" stroke="black" points="784.97,-122 643.03,-122 643.03,-86 784.97,-86 784.97,-122"/>
<text text-anchor="middle" x="714" y="-99.8" font-family="Times,serif" font-size="14.00">UserDetailComponent</text>
</g>
<!-- UserDetailComponent&#45;&gt;AppModule -->
<g id="edge5" class="edge">
<title>UserDetailComponent&#45;&gt;AppModule</title>
<path fill="none" stroke="black" d="M714,-122.11C714,-122.11 714,-140.99 714,-140.99"/>
<polygon fill="black" stroke="black" points="710.5,-140.99 714,-150.99 717.5,-140.99 710.5,-140.99"/>
</g>
<!-- UserViewComponent -->
<g id="node6" class="node">
<title>UserViewComponent</title>
<polygon fill="#ffffb3" stroke="black" points="625.08,-122 486.92,-122 486.92,-86 625.08,-86 625.08,-122"/>
<text text-anchor="middle" x="556" y="-99.8" font-family="Times,serif" font-size="14.00">UserViewComponent</text>
</g>
<!-- UserViewComponent&#45;&gt;AppModule -->
<g id="edge6" class="edge">
<title>UserViewComponent&#45;&gt;AppModule</title>
<path fill="none" stroke="black" d="M556,-122.01C556,-138.05 556,-159 556,-159 556,-159 662.07,-159 662.07,-159"/>
<polygon fill="black" stroke="black" points="662.07,-162.5 672.07,-159 662.07,-155.5 662.07,-162.5"/>
</g>
<!-- AppComponent  -->
<g id="node10" class="node">
<title>AppComponent </title>
<polygon fill="#80b1d3" stroke="black" points="768.44,-252 659.56,-252 659.56,-216 768.44,-216 768.44,-252"/>
<text text-anchor="middle" x="714" y="-229.8" font-family="Times,serif" font-size="14.00">AppComponent </text>
</g>
<!-- AppModule&#45;&gt;AppComponent  -->
<g id="edge9" class="edge">
<title>AppModule&#45;&gt;AppComponent </title>
<path fill="none" stroke="black" stroke-dasharray="1,5" d="M714,-187.11C714,-187.11 714,-205.99 714,-205.99"/>
<polygon fill="black" stroke="black" points="710.5,-205.99 714,-215.99 717.5,-205.99 710.5,-205.99"/>
</g>
<!-- AppRoutingModule -->
<g id="node8" class="node">
<title>AppRoutingModule</title>
<polygon fill="#8dd3c7" stroke="black" points="463.27,-122 460.27,-126 439.27,-126 436.27,-122 334.73,-122 334.73,-86 463.27,-86 463.27,-122"/>
<text text-anchor="middle" x="399" y="-99.8" font-family="Times,serif" font-size="14.00">AppRoutingModule</text>
</g>
<!-- AppRoutingModule&#45;&gt;AppModule -->
<g id="edge7" class="edge">
<title>AppRoutingModule&#45;&gt;AppModule</title>
<path fill="none" stroke="black" d="M399,-122.27C399,-140.56 399,-166 399,-166 399,-166 662.17,-166 662.17,-166"/>
<polygon fill="black" stroke="black" points="662.17,-169.5 672.17,-166 662.17,-162.5 662.17,-169.5"/>
</g>
<!-- MaterialModule -->
<g id="node9" class="node">
<title>MaterialModule</title>
<polygon fill="#8dd3c7" stroke="black" points="316.47,-122 313.47,-126 292.47,-126 289.47,-122 209.53,-122 209.53,-86 316.47,-86 316.47,-122"/>
<text text-anchor="middle" x="263" y="-99.8" font-family="Times,serif" font-size="14.00">MaterialModule</text>
</g>
<!-- MaterialModule&#45;&gt;AppModule -->
<g id="edge8" class="edge">
<title>MaterialModule&#45;&gt;AppModule</title>
<path fill="none" stroke="black" d="M263,-122.13C263,-142.57 263,-173 263,-173 263,-173 661.98,-173 661.98,-173"/>
<polygon fill="black" stroke="black" points="661.98,-176.5 671.98,-173 661.98,-169.5 661.98,-176.5"/>
</g>
<!-- HeaderInterceptor -->
<g id="node11" class="node">
<title>HeaderInterceptor</title>
<ellipse fill="#fdb462" stroke="black" cx="105" cy="-104" rx="81.04" ry="18"/>
<text text-anchor="middle" x="105" y="-99.8" font-family="Times,serif" font-size="14.00">HeaderInterceptor</text>
</g>
<!-- HeaderInterceptor&#45;&gt;AppModule -->
<g id="edge10" class="edge">
<title>HeaderInterceptor&#45;&gt;AppModule</title>
<path fill="none" stroke="black" d="M105,-122.01C105,-144.49 105,-180 105,-180 105,-180 662.14,-180 662.14,-180"/>
<polygon fill="black" stroke="black" points="662.14,-183.5 672.14,-180 662.14,-176.5 662.14,-183.5"/>
</g>
</g>
</svg>
